<svg height="512pt" viewBox="-17 0 512 512.00001" width="512pt" xmlns="http://www.w3.org/2000/svg"><path d="m239.667969 512c-4.285157 0-7.757813-3.472656-7.757813-7.757812 0-25.488282-10.820312-68.660157-29.683594-118.441407-17.941406-47.351562-40.984374-94.828125-61.640624-127-2.3125-3.605469-1.269532-8.40625 2.335937-10.71875s8.40625-1.269531 10.71875 2.335938c32.472656 50.578125 70.101563 137.269531 86.027344 201.96875 15.925781-64.699219 53.554687-151.390625 86.027343-201.96875 2.3125-3.605469 7.113282-4.648438 10.71875-2.335938 3.601563 2.3125 4.648438 7.113281 2.335938 10.71875-20.65625 32.171875-43.699219 79.648438-61.640625 127-18.863281 49.78125-29.683594 92.953125-29.683594 118.441407 0 4.285156-3.472656 7.757812-7.757812 7.757812zm0 0" fill="#51a2af"/><path d="m463.621094 381.800781c-12.148438 56.378907-122.304688 168.738281-188.261719 94.644531-20.125-97.136718 135.761719-118.527343 188.261719-94.644531zm0 0" fill="#67c1b0"/><path d="m239.671875 512c-2.164063 0-4.320313-.902344-5.851563-2.660156-2.816406-3.230469-2.476562-8.132813.753907-10.945313 3.09375-2.699219 76.863281-66.34375 168.546875-91.347656 4.136718-1.125 8.398437 1.3125 9.527344 5.445313 1.125 4.132812-1.308594 8.398437-5.445313 9.523437-88.285156 24.078125-161.707031 87.4375-162.4375 88.074219-1.472656 1.28125-3.289063 1.910156-5.09375 1.910156zm0 0" fill="#51a2af"/><g fill="#ff9216"><path d="m452.660156 86.777344c-1.105468 0-2.230468-.238282-3.300781-.742188-3.875-1.824218-5.535156-6.449218-3.710937-10.324218l18.910156-40.121094c1.828125-3.871094 6.449218-5.535156 10.328125-3.707032 3.875 1.828126 5.535156 6.449219 3.707031 10.324219l-18.910156 40.121094c-1.324219 2.804687-4.113282 4.449219-7.023438 4.449219zm0 0"/><path d="m419.628906 71.207031c-1.105468 0-2.234375-.238281-3.300781-.742187-3.875-1.828125-5.535156-6.449219-3.710937-10.324219l18.914062-40.117187c1.828125-3.875 6.449219-5.539063 10.324219-3.710938s5.535156 6.449219 3.710937 10.324219l-18.914062 40.121093c-1.324219 2.804688-4.113282 4.449219-7.023438 4.449219zm0 0"/><path d="m386.601562 55.636719c-1.109374 0-2.234374-.238281-3.304687-.742188-3.875-1.828125-5.535156-6.449219-3.707031-10.324219l18.910156-40.117187c1.828125-3.875 6.445312-5.539063 10.324219-3.710937 3.875 1.828124 5.535156 6.449218 3.707031 10.324218l-18.910156 40.121094c-1.320313 2.804688-4.113282 4.449219-7.019532 4.449219zm0 0"/><path d="m26.675781 86.777344c-2.910156 0-5.699219-1.644532-7.023437-4.449219l-18.910156-40.121094c-1.828126-3.875-.164063-8.496093 3.710937-10.324219 3.875-1.824218 8.496094-.164062 10.324219 3.710938l18.910156 40.117188c1.828125 3.875.164062 8.5-3.710938 10.324218-1.066406.503906-2.191406.742188-3.300781.742188zm0 0"/><path d="m59.707031 71.207031c-2.910156 0-5.699219-1.644531-7.023437-4.453125l-18.910156-40.117187c-1.828126-3.875-.164063-8.496094 3.707031-10.324219 3.878906-1.824219 8.5-.164062 10.328125 3.710938l18.910156 40.117187c1.824219 3.875.164062 8.5-3.710938 10.324219-1.066406.503906-2.195312.742187-3.300781.742187zm0 0"/><path d="m92.734375 55.636719c-2.910156 0-5.699219-1.644531-7.019531-4.453125l-18.914063-40.117188c-1.824219-3.875-.164062-8.496094 3.710938-10.324218 3.875-1.824219 8.5-.167969 10.324219 3.710937l18.910156 40.117187c1.828125 3.875.167968 8.496094-3.707032 10.324219-1.066406.503907-2.195312.742188-3.304687.742188zm0 0"/></g><path d="m102.402344 34.714844-1.613282-3.417969-92.519531 43.613281 1.257813 2.675782c11.863281 25.160156 16.484375 53.304687 12.167968 80.785156-2.804687 17.867187-.269531 36.773437 8.496094 54.265625 21.402344 42.710937 73.242188 61.320312 116.921875 41.972656 46.402344-20.554687 66.5625-75.128906 45.042969-120.777344-7.785156-16.511719-19.941406-29.550781-34.433594-38.402343-23.894531-14.59375-43.382812-35.390626-55.320312-60.714844zm0 0" fill="#ff694f"/><path d="m149.082031 253.710938c-.65625.308593-1.316406.605468-1.976562.90625-43.667969 19.34375-95.511719.734374-116.914063-41.976563-8.78125-17.492187-11.300781-36.398437-8.5-54.265625 4.3125-27.480469-.3125-55.628906-12.167968-80.785156l-1.261719-2.671875 25.023437-11.796875 1.261719 2.675781c11.859375 25.152344 20.300781 51.503906 23.628906 75.378906 2.167969 15.523438 7.519531 33.101563 16.054688 50.703125 20.847656 42.976563 53.628906 70.570313 73.945312 62.234375.3125-.132812.597657-.257812.90625-.402343zm0 0" fill="#ed2867"/><path d="m376.9375 34.714844 1.609375-3.417969 92.523437 43.613281-1.261718 2.675782c-11.859375 25.160156-16.484375 53.304687-12.167969 80.785156 2.804687 17.867187.273437 36.773437-8.492187 54.265625-21.40625 42.710937-73.246094 61.320312-116.925782 41.972656-46.402344-20.554687-66.558594-75.128906-45.042968-120.777344 7.785156-16.511719 19.941406-29.550781 34.433593-38.402343 23.894531-14.59375 43.382813-35.390626 55.324219-60.714844zm0 0" fill="#ff694f"/><path d="m398.609375 40.753906-1.601563 3.421875c-11.945312 25.320313-27.988281 47.734375-45.851562 65.175781-10.832031 10.578126-20.855469 24.625-28.640625 41.132813-21.132813 44.839844-17.761719 90.898437 7.476563 103.09375-44.808594-21.285156-63.972657-74.84375-42.8125-119.746094 7.789062-16.507812 19.941406-29.550781 34.433593-38.40625 23.90625-14.59375 43.390625-35.382812 55.328125-60.714843l1.613282-3.414063zm0 0" fill="#ed2867"/></svg>