<svg height="512pt" viewBox="0 -24 512 512" width="512pt" xmlns="http://www.w3.org/2000/svg"><path d="m290.171875 178.816406c-53.046875 38.886719-78.4375 101.476563-72.300781 162.507813 56.351562 24.222656 123.6875 18.851562 176.734375-20.035157 53.050781-38.886718 78.441406-101.476562 72.300781-162.507812-56.351562-24.222656-123.683594-18.851562-176.734375 20.035156zm0 0" fill="#9fd661"/><path d="m221.824219 178.816406c53.046875 38.886719 78.4375 101.476563 72.300781 162.507813-56.351562 24.222656-123.683594 18.851562-176.734375-20.035157-53.050781-38.886718-78.441406-101.476562-72.300781-162.507812 56.351562-24.222656 123.683594-18.851562 176.734375 20.035156zm0 0" fill="#9fd661"/><path d="m321.886719 270.855469c-2.441407 0-4.84375-1.136719-6.375-3.265625-2.527344-3.519532-1.726563-8.417969 1.789062-10.945313l112.089844-80.5625c3.511719-2.527343 8.414063-1.726562 10.941406 1.792969 2.53125 3.515625 1.726563 8.414062-1.789062 10.941406l-112.085938 80.5625c-1.386719.996094-2.984375 1.476563-4.570312 1.476563zm0 0" fill="#8bc34c"/><path d="m226.859375 297.269531c-1.585937 0-3.1875-.476562-4.570313-1.472656l-151.996093-109.246094c-3.519531-2.527343-4.320313-7.429687-1.792969-10.945312s7.429688-4.320313 10.945312-1.792969l151.996094 109.25c3.515625 2.523438 4.320313 7.425781 1.792969 10.941406-1.535156 2.132813-3.9375 3.265625-6.375 3.265625zm0 0" fill="#8bc34c"/><g fill="#ef5361"><path d="m334.136719 439.648438c56.960937 32.886718 124.476562 30.910156 177.863281.703124-.53125-61.335937-32.578125-120.796874-89.539062-153.683593-56.964844-32.890625-124.480469-30.910157-177.867188-.703125.535156 61.335937 32.578125 120.796875 89.542969 153.683594zm0 0"/><path d="m177.867188 439.648438c-56.960938 32.886718-124.480469 30.910156-177.86328175.703124.53124975-61.335937 32.57812475-120.796874 89.53906275-153.683593 56.964843-32.890625 124.480469-30.910157 177.867187-.703125-.535156 61.335937-32.578125 120.796875-89.542968 153.683594zm0 0"/><path d="m167.675781 154.386719c0 65.773437 35.472657 123.257812 88.324219 154.386719 52.851562-31.128907 88.324219-88.613282 88.324219-154.386719 0-65.777344-35.472657-123.257813-88.324219-154.386719-52.851562 31.128906-88.324219 88.609375-88.324219 154.386719zm0 0"/></g><path d="m167.675781 154.390625c0 65.773437 35.472657 123.257813 88.324219 154.386719v-308.77343775c-52.851562 31.12890575-88.324219 88.60937475-88.324219 154.38671875zm0 0" fill="#dc4250"/><path d="m334.136719 439.648438c56.960937 32.886718 124.476562 30.910156 177.863281.703124l-267.402344-154.386718c.53125 61.335937 32.574219 120.796875 89.539063 153.683594zm0 0" fill="#dc4250"/><path d="m177.863281 439.648438c-56.960937 32.886718-124.480469 30.910156-177.863281.703124l267.402344-154.386718c-.53125 61.335937-32.574219 120.796875-89.539063 153.683594zm0 0" fill="#dc4250"/><path d="m304.101562 320.480469c0 26.566406-21.535156 48.097656-48.097656 48.097656-26.566406 0-48.097656-21.53125-48.097656-48.097656 0-26.5625 21.53125-48.097657 48.097656-48.097657 26.5625 0 48.097656 21.535157 48.097656 48.097657zm0 0" fill="#ffe66b"/><path d="m239.269531 320.480469c0-21.070313 13.554688-38.960938 32.417969-45.464844-4.917969-1.699219-10.191406-2.632813-15.683594-2.632813-26.566406 0-48.097656 21.535157-48.097656 48.097657 0 26.566406 21.53125 48.097656 48.097656 48.097656 5.492188 0 10.765625-.933594 15.683594-2.628906-18.863281-6.503907-32.417969-24.398438-32.417969-45.46875zm0 0" fill="#f79e31"/><path d="m257.941406 272.386719c0 26.5625-21.535156 48.097656-48.097656 48.097656s-48.097656-21.535156-48.097656-48.097656 21.535156-48.097657 48.097656-48.097657 48.097656 21.535157 48.097656 48.097657zm0 0" fill="#ffe66b"/><path d="m350.257812 272.386719c0 26.5625-21.535156 48.097656-48.097656 48.097656s-48.097656-21.535156-48.097656-48.097656 21.535156-48.097657 48.097656-48.097657 48.097656 21.535157 48.097656 48.097657zm0 0" fill="#ffe66b"/><path d="m285.429688 272.386719c0-21.070313 13.554687-38.964844 32.414062-45.46875-4.917969-1.695313-10.191406-2.628907-15.683594-2.628907-26.5625 0-48.097656 21.535157-48.097656 48.097657 0 26.566406 21.535156 48.097656 48.097656 48.097656 5.492188 0 10.765625-.933594 15.683594-2.628906-18.859375-6.503907-32.414062-24.398438-32.414062-45.46875zm0 0" fill="#f79e31"/><path d="m193.113281 272.386719c0-21.070313 13.554688-38.964844 32.414063-45.46875-4.917969-1.695313-10.191406-2.628907-15.683594-2.628907-26.5625 0-48.097656 21.535157-48.097656 48.097657 0 26.566406 21.535156 48.097656 48.097656 48.097656 5.496094 0 10.765625-.933594 15.683594-2.628906-18.859375-6.503907-32.414063-24.398438-32.414063-45.46875zm0 0" fill="#f79e31"/><path d="m256 210.707031c-4.332031 0-7.84375-3.507812-7.84375-7.839843v-152.125c0-4.332032 3.511719-7.84375 7.84375-7.84375s7.84375 3.511718 7.84375 7.84375v152.125c0 4.332031-3.511719 7.839843-7.84375 7.839843zm0 0" fill="#c63446"/><path d="m480.644531 430.09375c-1.332031 0-2.679687-.339844-3.914062-1.050781l-131.746094-76.0625c-3.75-2.167969-5.035156-6.960938-2.867187-10.710938 2.164062-3.753906 6.957031-5.039062 10.710937-2.871093l131.742187 76.0625c3.75 2.164062 5.035157 6.960937 2.871094 10.710937-1.453125 2.515625-4.089844 3.921875-6.796875 3.921875zm0 0" fill="#c63446"/><path d="m31.359375 430.09375c-2.710937 0-5.347656-1.40625-6.800781-3.921875-2.164063-3.75-.878906-8.546875 2.871094-10.710937l131.742187-76.0625c3.75-2.167969 8.546875-.882813 10.714844 2.871093 2.164062 3.75.878906 8.542969-2.871094 10.710938l-131.742187 76.0625c-1.238282.710937-2.585938 1.050781-3.914063 1.050781zm0 0" fill="#c63446"/></svg>