<svg height="512pt" viewBox="0 0 512 512.001" width="512pt" xmlns="http://www.w3.org/2000/svg"><path d="m75.609375 435.8125c25.59375 25.976562 67.550781 26.292969 93.535156.703125 1.871094-1.84375 3.675781-3.859375 5.375-5.996094.195313-.230469.386719-.460937.574219-.703125l95.984375-124.582031c14.523437-17.339844 13.496094-43.429687-2.417969-59.582031-8.574218-8.707032-20.101562-13.136719-31.652344-13.136719-9.886718 0-19.792968 3.242187-27.890624 9.820313l-126.003907 94.105468c-.105469.082032-.210937.160156-.316406.242188-2.316406 1.757812-4.496094 3.640625-6.480469 5.597656-25.980468 25.589844-26.296875 67.546875-.707031 93.53125zm0 0" fill="#e6486d"/><path d="m75.609375 435.8125 193.050781-190.160156c-8.574218-8.707032-20.101562-13.136719-31.652344-13.136719-9.886718 0-19.792968 3.242187-27.890624 9.820313l-126.003907 94.105468c-.105469.082032-.210937.160156-.316406.242188-2.316406 1.757812-4.496094 3.640625-6.480469 5.597656-25.980468 25.589844-26.296875 67.546875-.707031 93.53125zm0 0" fill="#f07a97"/><path d="m244.171875 305.03125 94.109375 126.003906c.078125.109375.15625.210938.238281.316406 1.761719 2.320313 3.644531 4.5 5.597657 6.484376 25.589843 25.980468 67.546874 26.296874 93.53125.703124 12.582031-12.394531 19.589843-28.953124 19.722656-46.617187.132812-17.667969-6.621094-34.328125-19.019532-46.914063-1.84375-1.871093-3.859374-3.679687-6.003906-5.378906-.226562-.195312-.457031-.386718-.695312-.570312l-124.582032-95.984375c-8.179687-6.851563-18.304687-10.246094-28.417968-10.242188-11.324219 0-22.632813 4.253907-31.164063 12.65625-16.160156 15.914063-17.582031 41.988281-3.316406 59.542969zm0 0" fill="#e6486d"/><path d="m244.171875 305.03125 94.109375 126.003906c.078125.109375.15625.210938.238281.316406 1.761719 2.320313 3.644531 4.5 5.597657 6.484376 25.589843 25.980468 67.546874 26.296874 93.53125.703124l-190.160157-193.050781c-16.160156 15.914063-17.582031 41.988281-3.316406 59.542969zm0 0" fill="#f07a97"/><path d="m304.550781 19.726562c-12.398437-12.585937-28.953125-19.589843-46.621093-19.72265575-.167969-.00390625-.335938-.00390625-.507813-.00390625-36.234375 0-65.851563 29.339844-66.125 65.636719-.019531 2.625.125 5.328125.4375 8.046875.019531.300781.050781.597656.089844.902344l20.222656 155.964843c1.988281 22.53125 21.164063 40.25 43.839844 40.421875h.332031c22.535156 0 41.796875-17.371094 44.113281-39.761718l22.554688-155.640626c.023437-.136718.039062-.273437.054687-.414062.394532-2.875.605469-5.738281.625-8.519531.136719-17.664063-6.617187-34.324219-19.015625-46.910157zm0 0" fill="#60f78e"/><path d="m304.550781 19.726562c-12.398437-12.585937-28.953125-19.589843-46.621093-19.72265575-.167969-.00390625-.335938-.00390625-.507813-.00390625 0 0-1.203125 270.976562-1.535156 270.972656h.332031c22.535156 0 41.796875-17.371094 44.113281-39.761718l22.554688-155.640626c.023437-.136718.039062-.273437.054687-.414062.394532-2.875.605469-5.738281.625-8.519531.136719-17.664063-6.617187-34.324219-19.015625-46.910157zm0 0" fill="#44b064"/><path d="m320.265625 438.316406c-.019531-.300781-.050781-.601562-.089844-.902344l-20.222656-155.960937c-1.988281-22.53125-21.160156-40.253906-43.835937-40.425781-.113282 0-.222657 0-.332032 0-22.535156 0-41.800781 17.371094-44.117187 39.761718l-22.554688 155.640626c-.019531.128906-.035156.257812-.050781.386718-.394531 2.882813-.605469 5.757813-.628906 8.546875-.273438 36.46875 29.171875 66.359375 65.636718 66.636719h.507813c36.238281 0 65.855469-29.339844 66.128906-65.636719.019531-2.628906-.128906-5.332031-.441406-8.046875zm0 0" fill="#60f78e"/><path d="m320.265625 438.316406c-.019531-.300781-.050781-.601562-.089844-.902344l-20.222656-155.960937c-1.988281-22.53125-21.160156-40.253906-43.835937-40.425781-.113282 0-.222657 0-.332032 0 0 0-1.207031 270.972656-1.714844 270.972656h.507813c36.238281 0 65.855469-29.339844 66.128906-65.636719.019531-2.628906-.128906-5.332031-.441406-8.046875zm0 0" fill="#3ea05b"/><path d="m231.210938 211.667969-155.640626-22.554688c-.128906-.019531-.257812-.039062-.386718-.050781-2.882813-.398438-5.757813-.609375-8.546875-.628906-.171875 0-.339844-.003906-.511719-.003906-17.476562 0-33.9375 6.746093-46.398438 19.023437-12.585937 12.394531-19.589843 28.953125-19.72265575 46.617187-.27734425 36.46875 29.16796875 66.359376 65.63671875 66.632813.15625.003906.308594.003906.464844.003906 2.480469 0 5.027343-.148437 7.585937-.441406.296875-.023437.597656-.050781.894532-.089844l155.964843-20.222656c22.527344-1.988281 40.25-21.164063 40.421875-43.839844s-17.257812-42.121093-39.761718-44.445312zm0 0" fill="#60f78e"/><path d="m446.359375 191.296875c-2.621094-.011719-5.332031.125-8.050781.4375-.296875.023437-.597656.050781-.894532.089844l-155.960937 20.222656c-22.53125 1.988281-40.253906 21.164063-40.425781 43.839844s17.257812 42.121093 39.761718 44.445312l155.640626 22.554688c.136718.019531.277343.039062.414062.054687 2.875.394532 5.738281.605469 8.519531.625.171875 0 .34375.003906.511719.003906 17.476562 0 33.9375-6.746093 46.402344-19.019531 12.582031-12.398437 19.589844-28.957031 19.722656-46.621093.273438-36.46875-29.171875-66.359376-65.640625-66.632813zm0 0" fill="#3ea05b"/><path d="m438.382812 76.347656c-25.589843-25.980468-67.546874-26.296875-93.53125-.703125-1.871093 1.84375-3.679687 3.855469-5.375 5.996094-.199218.226563-.390624.460937-.574218.699219l-95.984375 124.585937c-14.527344 17.335938-13.5 43.425781 2.414062 59.582031 8.578125 8.707032 20.101563 13.132813 31.65625 13.132813 9.886719 0 19.792969-3.242187 27.886719-9.820313l126.003906-94.105468c.109375-.078125.210938-.160156.316406-.242188 2.316407-1.757812 4.5-3.640625 6.484376-5.59375 25.980468-25.59375 26.296874-67.550781.703124-93.53125zm0 0" fill="#f07a97"/><path d="m438.382812 76.347656-193.050781 190.160156c8.578125 8.707032 20.101563 13.132813 31.65625 13.132813 9.886719 0 19.792969-3.242187 27.886719-9.820313l126.003906-94.105468c.109375-.078125.210938-.160156.316406-.242188 2.316407-1.757812 4.5-3.640625 6.484376-5.59375 25.980468-25.59375 26.296874-67.550781.703124-93.53125zm0 0" fill="#e6486d"/><path d="m269.820312 207.125-94.105468-126.003906c-.078125-.105469-.160156-.210938-.242188-.316406-1.757812-2.316407-3.640625-4.5-5.59375-6.480469-25.59375-25.980469-67.550781-26.296875-93.53125-.707031-12.585937 12.398437-19.589844 28.953124-19.722656 46.621093-.132812 17.664063 6.621094 34.324219 19.015625 46.910157 1.84375 1.871093 3.863281 3.679687 6.003906 5.382812.226563.195312.457031.382812.695313.566406l124.582031 95.984375c8.179687 6.855469 18.304687 10.246094 28.421875 10.242188 11.320312 0 22.628906-4.25 31.164062-12.65625 16.15625-15.914063 17.578126-41.988281 3.3125-59.542969zm0 0" fill="#f07a97"/><path d="m269.820312 207.125-94.105468-126.003906c-.078125-.105469-.160156-.210938-.242188-.316406-1.757812-2.316407-3.640625-4.5-5.59375-6.480469-25.59375-25.980469-67.550781-26.296875-93.53125-.707031l190.160156 193.050781c16.15625-15.914063 17.578126-41.988281 3.3125-59.542969zm0 0" fill="#e6486d"/><path d="m243.042969 283.1875c-3.355469-10.933594 2.160156-22.808594 12.964843-27.167969 10.804688-4.363281 23.015626.355469 28.191407 10.554688l59.457031 103.816406-.015625.003906c.855469 1.503907 1.628906 3.074219 2.296875 4.722657 8.023438 19.878906-1.589844 42.5-21.46875 50.523437s-42.5-1.585937-50.523438-21.464844c-.664062-1.648437-1.199218-3.316406-1.625-4.992187h-.003906zm0 0" fill="#f2f7ff"/><path d="m268.960938 228.8125c3.351562 10.933594-2.164063 22.808594-12.96875 27.167969-10.804688 4.363281-23.015626-.355469-28.191407-10.554688l-59.457031-103.816406.015625-.003906c-.855469-1.503907-1.628906-3.074219-2.296875-4.722657-8.023438-19.878906 1.589844-42.5 21.46875-50.523437s42.5 1.589844 50.523438 21.46875c.664062 1.648437 1.199218 3.316406 1.625 4.992187l.003906-.003906zm0 0" fill="#f2f7ff"/><path d="m243.453125 228.621094c-3.519531 10.882812 1.816406 22.835937 12.554687 27.359375 10.742188 4.523437 23.019532-.007813 28.347657-10.128907l61.015625-102.90625-.015625-.007812c.878906-1.488281 1.675781-3.046875 2.367187-4.683594 8.320313-19.757812-.945312-42.519531-20.703125-50.84375-19.757812-8.320312-42.519531.949219-50.839843 20.703125-.691407 1.640625-1.25 3.300781-1.703126 4.96875zm0 0" fill="#485c8c"/><path d="m268.546875 283.378906c3.519531-10.882812-1.816406-22.835937-12.554687-27.359375-10.738282-4.523437-23.019532.007813-28.347657 10.128907l-61.011719 102.90625.011719.007812c-.878906 1.488281-1.675781 3.046875-2.363281 4.683594-8.324219 19.757812.945312 42.519531 20.699219 50.84375 19.757812 8.320312 42.519531-.949219 50.84375-20.703125.6875-1.640625 1.246093-3.300781 1.699219-4.96875h.003906zm0 0" fill="#485c8c"/><path d="m226.578125 241.976562c11.835937-3.632812 24.683594 2.335938 29.402344 14.03125 4.71875 11.695313-.386719 24.90625-11.425781 30.507813l-112.34375 64.339844-.003907-.011719c-1.628906.925781-3.328125 1.761719-5.109375 2.480469-21.515625 8.683593-45.992187-1.714844-54.675781-23.230469-8.683594-21.511719 1.71875-45.992188 23.230469-54.671875 1.785156-.722656 3.589844-1.296875 5.402344-1.761719zm0 0" fill="#f2f7ff"/><path d="m285.421875 270.023438c-11.832031 3.628906-24.679687-2.339844-29.402344-14.035157-4.71875-11.691406.386719-24.90625 11.425781-30.507812l112.34375-64.339844.007813.015625c1.625-.925781 3.324219-1.761719 5.109375-2.484375 21.511719-8.683594 45.988281 1.71875 54.671875 23.230469 8.683594 21.515625-1.714844 45.992187-23.230469 54.675781-1.785156.722656-3.585937 1.296875-5.402344 1.757813l.003907.003906zm0 0" fill="#f2f7ff"/><path d="m285.628906 242.421875c-11.777344-3.808594-24.714844 1.964844-29.609375 13.589844-4.894531 11.621093.011719 24.910156 10.960938 30.675781l111.363281 66.027344.007812-.015625c1.613282.949219 3.300782 1.8125 5.070313 2.558593 21.378906 9.007813 46.011719-1.023437 55.019531-22.402343 9.007813-21.378907-1.023437-46.011719-22.402344-55.019531-1.773437-.746094-3.570312-1.351563-5.375-1.839844v-.003906zm0 0" fill="#485c8c"/><path d="m226.371094 269.578125c11.777344 3.808594 24.714844-1.964844 29.609375-13.589844 4.894531-11.621093-.011719-24.910156-10.960938-30.675781l-111.363281-66.027344-.007812.015625c-1.609376-.949219-3.296876-1.8125-5.070313-2.558593-21.378906-9.007813-46.011719 1.023437-55.019531 22.402343-9.003906 21.378907 1.023437 46.011719 22.40625 55.019531 1.769531.746094 3.566406 1.351563 5.375 1.839844l-.003906.003906zm0 0" fill="#485c8c"/><path d="m322.1875 256c0 36.554688-29.632812 66.1875-66.1875 66.1875s-66.1875-29.632812-66.1875-66.1875 29.632812-66.1875 66.1875-66.1875 66.1875 29.632812 66.1875 66.1875zm0 0" fill="#fbd43a"/><path d="m255.5 322.183594 1-132.367188c36.550781.277344 65.960938 30.128906 65.683594 66.683594-.273438 36.550781-30.128906 65.960938-66.683594 65.683594zm0 0" fill="#fb8626"/></svg>