<svg height="512pt" viewBox="0 0 512 512" width="512pt" xmlns="http://www.w3.org/2000/svg"><path d="m313.898438 459.101562-57.898438 52.699219-57.597656-52.101562 57.597656-98.699219zm0 0" fill="#a8d32a"/><path d="m313.898438 459.101562-57.898438 52.699219v-150.800781zm0 0" fill="#93bf00"/><path d="m128.777344 481c-.585938 0-1.171875-.015625-1.757813-.015625-92.941406-.945313-124.019531-73.1875-127.019531-75.847656 3.417969-2.867188 34.53125-73.894531 128.601562-74.136719 92.972657.972656 124.398438 74.34375 127.398438 77.007812-3.074219 2.628907-36.640625 72.992188-127.222656 72.992188zm0 0" fill="#f27281"/><path d="m55.710938 172.871094-15.292969-.675782-.527344 18.371094c-.863281 58.050782 20.332031 113.464844 59.679687 156.019532 42.101563 45.558593 94.203126 71.175781 156.429688 72.144531l20.507812-16.539063c-15.644531-151.582031-122.167968-224.398437-220.796874-229.320312zm0 0" fill="#f68b98"/><path d="m256 91c-3 4.199219-75 60.300781-75 165 0 112.5 68.101562 155.097656 75 165 3-4.199219 75-60.300781 75-165 0-112.5-68.101562-155.101562-75-165zm0 0" fill="#f9a7b0"/><path d="m331 256c0 104.699219-72 160.800781-75 165v-330c6.898438 9.898438 75 52.5 75 165zm0 0" fill="#f68b98"/><path d="m469.617188 170.585938-16.640626.6875c-58.621093 3.75-112.617187 29.722656-152.050781 73.09375-39.710937 43.699218-60.394531 100.402343-58.226562 159.65625l15.863281 14.425781c59.148438-3.457031 113.628906-29.441407 153.367188-73.183594 39.757812-43.738281 60.441406-100.441406 58.242187-159.667969zm0 0" fill="#f9a7b0"/><path d="m383.777344 481c-.585938 0-1.171875-.015625-1.757813-.015625-92.941406-.945313-123.019531-73.1875-126.019531-75.847656 3.417969-2.867188 33.53125-73.894531 127.601562-74.136719 92.972657.972656 125.398438 74.34375 128.398438 77.007812-3.074219 2.628907-37.640625 72.992188-128.222656 72.992188zm0 0" fill="#fbc0c8"/><path d="m241 0h30v61h-30zm0 0" fill="#a8ebfa"/><path d="m160.535156 34.324219 42.4375 42.433593-21.210937 21.210938-42.4375-42.433594zm0 0" fill="#a8ebfa"/><path d="m351.460938 34.324219 21.210937 21.210937-42.433594 42.433594-21.210937-21.210938zm0 0" fill="#76e2f8"/><path d="m376 384.785156 21.210938 21.210938-21.210938 21.210937-21.210938-21.210937zm0 0" fill="#e2e2e7"/><path d="m136.003906 384.785156 21.210938 21.210938-21.210938 21.210937-21.210937-21.210937zm0 0" fill="#ececf1"/><path d="m234.695312 256 21.300782-21.300781 21.300781 21.300781-21.300781 21.300781zm0 0" fill="#ececf1"/><path d="m361 264.785156 21.210938 21.210938-21.210938 21.210937-21.210938-21.210937zm0 0" fill="#e2e2e7"/><path d="m151 264.785156 21.210938 21.210938-21.210938 21.210937-21.210938-21.210937zm0 0" fill="#ececf1"/><path d="m256 0h15v61h-15zm0 0" fill="#76e2f8"/><path d="m277.300781 256-21.300781 21.300781v-42.601562zm0 0" fill="#e2e2e7"/></svg>