<svg height="512pt" viewBox="0 -26 512 512" width="512pt" xmlns="http://www.w3.org/2000/svg"><path d="m511.996094 363.179688c0-53.554688-114.613282-96.964844-255.996094-96.964844-141.386719 0-256 43.410156-256 96.964844 0 53.550781 114.613281 96.964843 256 96.964843 141.382812 0 255.996094-43.414062 255.996094-96.964843zm0 0" fill="#57bf93"/><path d="m512 363.175781c0 53.554688-114.613281 96.972657-256 96.972657-31.855469 0-62.351562-2.207032-90.484375-6.230469 6.992187.207031 14.054687.308593 21.183594.308593 156.328125 0 283.050781-50.828124 283.050781-113.542968 0-14.09375-6.40625-27.585938-18.101562-40.042969 37.664062 16.882813 60.351562 38.703125 60.351562 62.535156zm0 0" fill="#1fb480"/><path d="m146.644531 76.007812c-10.515625-5.332031-21.027343-10.667968-31.539062-16-6.675781-3.386718-14.089844-.40625-16.5625 6.65625-3.597657 10.28125-8.550781 24.433594-11.683594 33.382813-14.21875 40.644531-30.585937 95.707031-10.035156 140.585937 22.6875 49.539063 78.140625 56.261719 117.542969 40.417969 39.40625-15.84375 74.765624-59.085937 56.84375-110.539062-16.238282-46.613281-66.167969-75.019531-104.566407-94.503907zm0 0" fill="#e32929"/><path d="m365.355469 76.007812c10.511719-5.332031 21.023437-10.667968 31.535156-16 6.675781-3.386718 14.089844-.40625 16.5625 6.65625 3.597656 10.28125 8.550781 24.433594 11.683594 33.382813 14.222656 40.644531 30.589843 95.707031 10.035156 140.585937-22.6875 49.539063-78.136719 56.261719-117.542969 40.417969-39.402344-15.84375-74.765625-59.085937-56.839844-110.539062 16.238282-46.613281 66.167969-75.019531 104.566407-94.503907zm0 0" fill="#e32929"/><path d="m435.171875 240.632812c-22.101563 48.261719-75.304687 55.894532-114.460937 41.601563 33.082031 2.246094 68.167968-10.890625 85.070312-47.800781 20.550781-44.882813 4.1875-99.941406-10.035156-140.582032-2.640625-7.539062-6.558594-18.75-9.890625-28.246093 3.683593-1.867188 7.355469-3.734375 11.035156-5.601563 6.683594-3.382812 14.097656-.402344 16.5625 6.664063 3.597656 10.28125 8.550781 24.429687 11.683594 33.382812 14.222656 40.640625 30.585937 95.699219 10.035156 140.582031zm0 0" fill="#cb2222"/><path d="m299.625 41.757812c-10.515625-12.011718-21.027344-24.023437-31.539062-36.035156-6.675782-7.628906-17.496094-7.628906-24.171876-.003906-9.710937 11.097656-23.085937 26.378906-31.542968 36.039062-38.398438 43.878907-86.777344 104.789063-83.628906 171.558594 3.476562 73.695313 69.746093 110.15625 127.257812 110.15625 57.507812 0 123.777344-36.460937 127.253906-110.15625 3.148438-66.769531-45.230468-127.679687-83.628906-171.558594zm0 0" fill="#ff9a9a"/><path d="m383.257812 213.3125c-3.476562 73.695312-69.746093 110.160156-127.257812 110.160156-6.324219 0-12.746094-.441406-19.183594-1.320312 52.128906-7.144532 104.972656-43.25 108.066406-108.839844 3.144532-66.761719-45.230468-127.679688-83.636718-171.550781-8.144532-9.3125-16.292969-18.613281-24.4375-27.925781 2.496094-2.847657 4.886718-5.589844 7.101562-8.117188 6.675782-7.628906 17.503906-7.621094 24.175782 0 10.507812 12.015625 21.027343 24.03125 31.535156 36.042969 38.40625 43.871093 86.78125 104.789062 83.636718 171.550781zm0 0" fill="#ff7a7a"/><path d="m470.851562 145.066406c-11.878906.808594-23.757812 1.621094-35.636718 2.433594-42.871094 2.925781-99.625 9.53125-133.285156 45.304688 0 0-31.242188 23.335937-45.933594 75.976562-14.6875-52.640625-45.929688-75.976562-45.929688-75.976562-33.660156-35.773438-90.414062-42.378907-133.285156-45.304688-11.878906-.8125-23.757812-1.625-35.636719-2.433594-7.546875-.515625-13.261719 5.179688-12.773437 12.726563.710937 10.976562 1.691406 26.089843 2.3125 35.648437 3.480468 53.6875 16.027344 107.417969 57.421875 145.019532 44.378906 40.3125 108.324219 56.941406 167.070312 56.941406 51.839844 0 108.820313-11.128906 151.605469-43.488282 50.613281-38.28125 70.566406-97.390624 74.53125-158.472656.621094-9.558594 1.597656-24.671875 2.3125-35.648437.488281-7.546875-5.226562-13.242188-12.773438-12.726563zm0 0" fill="#ff4343"/><path d="m483.628906 157.789062c-.710937 10.984376-1.691406 26.09375-2.320312 35.652344-3.957032 61.082032-23.914063 120.195313-74.527344 158.476563-41.757812 31.585937-97.054688 42.941406-147.882812 43.464843 40.640624-6.09375 80.789062-19.683593 113.488281-44.425781 56.378906-42.632812 78.605469-108.46875 83.019531-176.5.492188-7.640625 1.195312-18.449219 1.84375-28.464843 4.539062-.308594 9.066406-.617188 13.601562-.925782 7.550782-.515625 13.261719 5.183594 12.777344 12.722656zm0 0" fill="#f72c2c"/></svg>