<svg viewBox="0 -4 459.43298 459" xmlns="http://www.w3.org/2000/svg"><path d="m454.851562 103.863281c-2.78125-1.386719-4.539062-4.230469-4.539062-7.34375 0-3.109375 1.757812-5.953125 4.539062-7.34375 3.78125-1.878906 5.535157-6.304687 4.066407-10.261719-9.53125-25.238281-37.558594-38.144531-62.929688-28.976562.066407-.976562.152344-1.945312.152344-2.9375 0-20.550781-12.699219-38.96875-31.910156-46.269531-3.957031-1.464844-8.378907.292969-10.257813 4.070312-1.390625 2.78125-4.234375 4.539063-7.347656 4.539063-3.109375 0-5.957031-1.757813-7.347656-4.539063-1.878906-3.78125-6.304688-5.535156-10.265625-4.070312-19.199219 7.300781-31.894531 25.699219-31.910157 46.238281 0 .992188.097657 1.960938.152344 2.9375-25.371094-9.167969-53.398437 3.738281-62.929687 28.972656-1.464844 3.960938.289062 8.390625 4.074219 10.265625 2.78125 1.390625 4.542968 4.234375 4.542968 7.34375 0 3.113281-1.761718 5.957031-4.542968 7.34375-3.773438 1.863281-5.535157 6.273438-4.082032 10.226563 5.761719 14.949218 18.390625 26.199218 33.90625 30.199218-11.292968 15.277344-12.777344 35.695313-3.816406 52.445313 19.789062 1.195313 38.203125 10.527344 50.871094 25.777344 12.3125-1.789063 23.492187-8.160157 31.3125-17.839844 13.023437 16.15625 34.746094 22.464844 54.398437 15.800781 4.109375-1.472656 6.347657-5.898437 5.097657-10.082031v-.070313c-.863282-2.957031 0-6.148437 2.238281-8.265624 2.238281-2.117188 5.472656-2.800782 8.378906-1.773438l1.917969.671875c3.777344 1.355469 7.984375-.21875 9.945312-3.722656 9.21875-16.824219 7.824219-37.476563-3.578125-52.910157 15.515625-4 28.144531-15.25 33.90625-30.199218 1.453125-3.941406-.285156-8.34375-4.042969-10.226563zm0 0" fill="#ffccd3"/><path d="m321.507812 279.289062-.109374-.054687c-4.035157-2.023437-6.585938-6.152344-6.585938-10.664063 0-4.515624 2.550781-8.644531 6.585938-10.664062l.09375-.050781c5.429687-2.660157 7.992187-8.972657 5.953124-14.664063-10.078124-26.511718-34.730468-44.679687-63.039062-46.453125-1.433594-.089843-2.871094-.167969-4.328125-.167969-8.257813.015626-16.449219 1.457032-24.214844 4.261719.085938-1.414062.214844-2.824219.214844-4.261719-.003906-29.972656-18.578125-56.804687-46.625-67.371093-5.691406-2.035157-12.003906.527343-14.664063 5.953125l-.046874.097656c-2.023438 4.035156-6.152344 6.582031-10.664063 6.582031-4.515625 0-8.640625-2.546875-10.664063-6.582031l-.046874-.097656c-2.660157-5.425782-8.976563-7.988282-14.664063-5.953125-28.050781 10.566406-46.621094 37.398437-46.625 67.371093 0 1.4375.128906 2.847657.214844 4.261719-36.988281-13.347656-77.828125 5.5625-91.582031 42.402344-2.039063 5.6875.523437 12.003906 5.949218 14.664063l.097656.046874c4.035157 2.023438 6.582032 6.148438 6.582032 10.664063 0 4.511719-2.546875 8.640625-6.582032 10.664063l-.113281.054687c-5.40625 2.632813-7.972656 8.902344-5.96875 14.570313 8.246094 21.902343 26.605469 38.445312 49.25 44.375-16.582031 22.625-18.421875 52.847656-4.710937 77.320312 2.835937 4.894531 8.738281 7.101562 14.09375 5.269531l5.984375-1.992187c3.964843-1.320313 8.332031-.46875 11.511719 2.246094 3.179687 2.714843 4.703124 6.894531 4.015624 11.019531l-.71875 4.289062c-1.039062 5.890625 2.480469 11.632813 8.199219 13.382813 6.429688 1.847656 13.085938 2.773437 19.777344 2.761718 21.761719.011719 42.355469-9.84375 56-26.792968 19 23.589844 50.75 32.738281 79.390625 22.871094 5.855469-2.152344 9.011719-8.496094 7.199219-14.464844l-.070313-.230469c-1.25-4.292969.003906-8.921875 3.253906-11.992187 3.246094-3.074219 7.9375-4.070313 12.152344-2.585938l2.890625 1.019531c5.40625 1.957031 11.441407-.253906 14.304688-5.242187 13.472656-24.414063 11.546875-54.429688-4.9375-76.917969 22.640625-5.929687 41.003906-22.472656 49.246093-44.378906 2.003907-5.675781-.582031-11.945313-6-14.566407zm0 0" fill="#ffccd3"/><path d="m135.796875 320.847656c13.496094 13.492188 34.644531 15.574219 50.507813 4.96875 15.867187-10.605468 22.03125-30.941406 14.726562-48.570312-7.308594-17.628906-26.050781-27.640625-44.765625-23.914063-18.714844 3.726563-32.191406 20.152344-32.1875 39.238281-.015625 10.609376 4.203125 20.789063 11.71875 28.277344zm0 0" fill="#b83042"/><path d="m380.078125 116.570312c0 17.671876-14.328125 32-32 32s-32-14.328124-32-32c0-17.675781 14.328125-32 32-32s32 14.324219 32 32zm0 0" fill="#b83042"/><g fill="#f0aa06"><path d="m252.078125 284.570312h16v16h-16zm0 0"/><path d="m156.078125 188.570312h16v16h-16zm0 0"/><path d="m60.078125 284.570312h16v16h-16zm0 0"/><path d="m156.078125 380.570312h16v16h-16zm0 0"/><path d="m220.644531 224.691406 11.3125-11.316406 11.3125 11.316406-11.3125 11.3125zm0 0"/><path d="m84.886719 224.6875 11.3125-11.3125 11.316406 11.3125-11.316406 11.3125zm0 0"/><path d="m84.882812 360.445312 11.3125-11.316406 11.316407 11.316406-11.316407 11.3125zm0 0"/><path d="m220.640625 360.457031 11.3125-11.316406 11.3125 11.316406-11.3125 11.3125zm0 0"/><path d="m395.460938 108.570312h8.617187v16h-8.617187zm0 0"/><path d="m340.078125 60.570312h16v8.613282h-16zm0 0"/><path d="m292.078125 108.570312h8.617187v16h-8.617187zm0 0"/><path d="m340.078125 163.953125h16v8.617187h-16zm0 0"/></g><path d="m220.644531 247.3125-11.3125-11.3125-37.253906 37.257812v-52.6875h-16v52.6875l-37.257813-37.257812-11.3125 11.3125 37.257813 37.257812h-52.6875v16h52.6875l-37.257813 37.253907 11.3125 11.3125 37.257813-37.257813v52.691406h16v-52.691406l37.253906 37.257813 11.3125-11.3125-37.253906-37.253907h52.6875v-16h-52.6875zm-40.566406 38.632812v13.246094l-9.375 9.378906h-13.25l-9.375-9.378906v-13.246094l9.375-9.375h13.25zm0 0" fill="#ffe8eb"/><path d="m386.84375 108.570312h-19.453125l13.757813-13.761718-11.3125-11.3125-13.757813 13.761718v-19.457031h-16v19.457031l-13.761719-13.761718-11.3125 11.3125 13.761719 13.761718h-19.457031v16h19.457031l-13.761719 13.757813 11.3125 11.3125 13.761719-13.761719v19.457032h16v-19.457032l13.757813 13.761719 11.3125-11.3125-13.757813-13.757813h19.453125zm-30.148438 4.429688v7.136719l-5.050781 5.046875h-7.136719l-5.046874-5.046875v-7.136719l5.046874-5.046875h7.136719zm0 0" fill="#ffe8eb"/><path d="m375.933594 77.40625 6.09375-6.089844 11.308594 11.316406-6.09375 6.089844zm0 0" fill="#f0aa06"/><path d="m302.816406 82.636719 11.3125-11.316407 6.09375 6.089844-11.3125 11.316406zm0 0" fill="#f0aa06"/><path d="m302.816406 150.507812 6.097656-6.089843 11.308594 11.316406-6.09375 6.09375zm0 0" fill="#f0aa06"/><path d="m375.933594 155.738281 11.308594-11.316406 6.09375 6.089844-11.308594 11.316406zm0 0" fill="#f0aa06"/></svg>