<svg height="512pt" viewBox="-64 0 512 512" width="512pt" xmlns="http://www.w3.org/2000/svg"><path d="m131.960938 451.195312c18.742187 18.742188 41.992187 25.882813 51.925781 15.949219 9.9375-9.9375 2.796875-33.183593-15.949219-51.925781-18.742188-18.746094-41.988281-25.886719-51.925781-15.949219-9.933594 9.933594-2.792969 33.183594 15.949219 51.925781zm0 0" fill="#6f7f65"/><path d="m150.5625 401.757812c-15.308594 19.382813-18.605469 49.433594-18.605469 49.433594 18.742188 18.746094 41.992188 25.886719 51.925781 15.949219 9.933594-9.933594 2.796876-33.183594-15.949218-51.925781-5.550782-5.550782-11.492188-10.082032-17.371094-13.457032zm0 0" fill="#626d5b"/><path d="m192.054688 512c-14.554688 0-26.460938-11.90625-26.460938-26.460938v-217.3125c0-14.554687 11.90625-26.460937 26.460938-26.460937 14.550781 0 26.457031 11.90625 26.457031 26.460937v217.3125c0 14.554688-11.90625 26.460938-26.457031 26.460938zm0 0" fill="#809675"/><path d="m192.054688 241.765625c-14.554688 0-26.460938 11.910156-26.460938 26.460937v144.738282c26.511719 1.800781 42.867188-6.128906 52.917969-15.847656v-128.890626c0-14.554687-11.90625-26.460937-26.457031-26.460937zm0 0" fill="#6f7f65"/><g fill="#eada98"><path d="m266.1875 82.675781c13.273438-31.917969 13.097656-62.339843-.394531-67.953125-13.492188-5.609375-35.191407 15.714844-48.464844 47.632813s-13.097656 62.339843.394531 67.949219c13.492188 5.613281 35.191406-15.710938 48.464844-47.628907zm0 0"/><path d="m166.761719 321.738281c13.277343-31.914062 13.097656-62.339843-.394531-67.949219-13.492188-5.613281-35.1875 15.710938-48.464844 47.628907-13.273438 31.917969-13.097656 62.339843.394531 67.953125 13.492187 5.609375 35.191406-15.714844 48.464844-47.632813zm0 0"/><path d="m301.4375 266.183594c31.917969 13.273437 62.339844 13.097656 67.949219-.394532 5.613281-13.492187-15.710938-35.191406-47.628907-48.464843-31.917968-13.273438-62.339843-13.097657-67.953124.394531-5.609376 13.492188 15.714843 35.191406 47.632812 48.464844zm0 0"/><path d="m62.363281 166.765625c31.917969 13.273437 62.339844 13.097656 67.949219-.394531 5.613281-13.492188-15.710938-35.191406-47.628906-48.464844-31.917969-13.273438-62.339844-13.097656-67.953125.394531-5.609375 13.492188 15.714843 35.191407 47.632812 48.464844zm0 0"/><path d="m321.839844 167.136719c31.953125-13.183594 53.339844-34.824219 47.765625-48.332031-5.570313-13.507813-35.996094-13.769532-67.949219-.585938-31.957031 13.183594-53.34375 34.824219-47.769531 48.332031 5.574219 13.507813 35.996093 13.769531 67.953125.585938zm0 0"/><path d="m82.476562 265.890625c31.957032-13.183594 53.34375-34.824219 47.769532-48.332031-5.574219-13.507813-35.996094-13.769532-67.953125-.585938-31.953125 13.183594-53.339844 34.824219-47.765625 48.332032 5.574218 13.507812 35.996094 13.769531 67.949218.585937zm0 0"/><path d="m216.964844 321.839844c13.183594 31.957031 34.820312 53.34375 48.328125 47.769531 13.511719-5.574219 13.773437-35.996094.589843-67.953125-13.1875-31.953125-34.824218-53.339844-48.332031-47.765625-13.507812 5.570313-13.773437 35.996094-.585937 67.949219zm0 0"/><path d="m118.226562 82.476562c13.183594 31.953126 34.820313 53.339844 48.332032 47.769532 13.507812-5.574219 13.769531-35.996094.585937-67.953125-13.1875-31.953125-34.824219-53.339844-48.332031-47.769531-13.507812 5.574218-13.773438 35.996093-.585938 67.953124zm0 0"/></g><path d="m218.511719 62.589844c0-34.566406-11.84375-62.589844-26.457031-62.589844-14.613282 0-26.460938 28.023438-26.460938 62.589844 0 34.570312 11.847656 62.59375 26.460938 62.59375 14.613281 0 26.457031-28.023438 26.457031-62.59375zm0 0" fill="#f9e9aa"/><path d="m218.511719 321.515625c0-34.570313-11.84375-62.59375-26.457031-62.59375-14.613282 0-26.460938 28.023437-26.460938 62.59375 0 34.566406 11.847656 62.589844 26.460938 62.589844 14.613281 0 26.457031-28.023438 26.457031-62.589844zm0 0" fill="#f9e9aa"/><path d="m384.105469 192.054688c0-14.613282-28.023438-26.460938-62.589844-26.460938-34.570313 0-62.59375 11.847656-62.59375 26.460938 0 14.613281 28.023437 26.457031 62.59375 26.457031 34.566406 0 62.589844-11.84375 62.589844-26.457031zm0 0" fill="#f9e9aa"/><path d="m125.183594 192.054688c0-14.613282-28.023438-26.460938-62.59375-26.460938-34.566406 0-62.589844 11.847656-62.589844 26.460938 0 14.613281 28.023438 26.457031 62.589844 26.457031 34.570312 0 62.59375-11.84375 62.59375-26.457031zm0 0" fill="#f9e9aa"/><path d="m302.304688 119.21875c24.441406-24.445312 35.882812-52.636719 25.546874-62.96875-10.332031-10.332031-38.523437 1.105469-62.964843 25.546875-24.445313 24.445313-35.882813 52.636719-25.550781 62.96875 10.332031 10.332031 38.523437-1.105469 62.96875-25.546875zm0 0" fill="#f9e9aa"/><path d="m119.222656 302.304688c24.441406-24.445313 35.878906-52.636719 25.546875-62.96875-10.332031-10.332032-38.523437 1.105468-62.96875 25.546874-24.441406 24.445313-35.878906 52.636719-25.546875 62.96875 10.332032 10.332032 38.523438-1.105468 62.96875-25.546874zm0 0" fill="#f9e9aa"/><path d="m264.890625 302.304688c24.445313 24.445312 52.636719 35.882812 62.96875 25.550781s-1.105469-38.523438-25.550781-62.96875c-24.441406-24.441407-52.632813-35.882813-62.964844-25.550781-10.335938 10.335937 1.105469 38.527343 25.546875 62.96875zm0 0" fill="#f9e9aa"/><path d="m81.804688 119.21875c24.441406 24.445312 52.632812 35.882812 62.964843 25.550781 10.335938-10.332031-1.105469-38.523437-25.546875-62.96875-24.445312-24.441406-52.636718-35.882812-62.96875-25.550781-10.332031 10.335938 1.105469 38.527344 25.550782 62.96875zm0 0" fill="#f9e9aa"/><path d="m287.886719 192.054688c0 53.300781-43.210938 96.511718-96.515625 96.511718-53.300782 0-96.511719-43.210937-96.511719-96.511718 0-53.304688 43.210937-96.515626 96.511719-96.515626 53.304687 0 96.515625 43.210938 96.515625 96.515626zm0 0" fill="#c68d6d"/><path d="m252.148438 451.1875c18.746093-18.742188 25.886718-41.992188 15.949218-51.925781-9.933594-9.933594-33.183594-2.796875-51.925781 15.949219-18.742187 18.742187-25.882813 41.988281-15.949219 51.925781 9.9375 9.933593 33.183594 2.792969 51.925782-15.949219zm0 0" fill="#92af85"/><path d="m242.609375 192.054688c0 28.296874-22.941406 51.234374-51.238281 51.234374s-51.238282-22.9375-51.238282-51.234374c0-28.296876 22.941407-51.238282 51.238282-51.238282s51.238281 22.941406 51.238281 51.238282zm0 0" fill="#b2785b"/></svg>