<svg height="512pt" viewBox="1 0 511 512" width="512pt" xmlns="http://www.w3.org/2000/svg"><g fill="#fbd43a"><path d="m354.867188 105.90625c16.949218-40.546875 17.113281-79.09375.359374-86.097656-16.75-7.003906-44.070312 20.191406-61.023437 60.738281-16.949219 40.542969-17.113281 79.089844-.359375 86.09375 16.75 7.003906 44.070312-20.1875 61.023438-60.734375zm0 0"/><path d="m432.214844 219.425781c40.65625-16.6875 68.023437-43.832031 61.128906-60.628906s-45.441406-16.886719-86.097656-.199219-68.023438 43.832032-61.128906 60.628906c6.890624 16.796876 45.441406 16.886719 86.097656.199219zm0 0"/><path d="m406.601562 354.363281c40.542969 16.949219 79.089844 17.113281 86.09375.359375 7.003907-16.75-20.1875-44.070312-60.734374-61.023437-40.546876-16.949219-79.09375-17.113281-86.097657-.359375-7.003906 16.75 20.191407 44.070312 60.738281 61.023437zm0 0"/><path d="m293.066406 431.714844c16.6875 40.65625 43.828125 68.027344 60.625 61.132812 16.796875-6.894531 16.886719-45.441406.199219-86.097656-16.683594-40.65625-43.828125-68.027344-60.625-61.132812-16.796875 6.894531-16.886719 45.441406-.199219 86.097656zm0 0"/></g><path d="m158.132812 406.105469c-16.953124 40.542969-17.113281 79.089843-.359374 86.09375 16.75 7.003906 44.070312-20.1875 61.023437-60.734375 16.949219-40.546875 17.109375-79.09375.359375-86.097656-16.753906-7.003907-44.074219 20.191406-61.023438 60.738281zm0 0" fill="#fbe8a0"/><path d="m80.792969 292.5625c-40.65625 16.6875-68.027344 43.832031-61.132813 60.628906 6.894532 16.796875 45.441406 16.886719 86.097656.199219s68.027344-43.832031 61.132813-60.628906-45.441406-16.886719-86.097656-.199219zm0 0" fill="#fbe8a0"/><path d="m106.402344 157.628906c-40.546875-16.953125-79.09375-17.113281-86.097656-.363281-7.003907 16.753906 20.191406 44.074219 60.734374 61.023437 40.546876 16.953126 79.09375 17.113282 86.097657.363282 7.003906-16.753906-20.1875-44.074219-60.734375-61.023438zm0 0" fill="#fbe8a0"/><path d="m219.929688 80.296875c-16.6875-40.65625-43.832032-68.027344-60.628907-61.132813-16.796875 6.894532-16.886719 45.441407-.199219 86.097657s43.832032 68.027343 60.628907 61.132812 16.886719-45.441406.199219-86.097656zm0 0" fill="#fbe8a0"/><path d="m289.375 79.574219c0-43.949219-14.71875-79.574219-32.875-79.574219s-32.875 35.625-32.875 79.574219 14.71875 79.574219 32.875 79.574219 32.875-35.625 32.875-79.574219zm0 0" fill="#fbd43a"/><path d="m289.375 79.574219c0 43.949219-14.71875 79.574219-32.875 79.574219v-159.148438c18.15625 0 32.875 35.628906 32.875 79.574219zm0 0" fill="#fb8626"/><path d="m404.496094 154.492188c31.074218-31.074219 45.859375-66.675782 33.019531-79.515626-12.835937-12.835937-48.4375 1.945313-79.511719 33.023438-31.078125 31.074219-45.859375 66.675781-33.023437 79.511719 12.839843 12.839843 48.441406-1.945313 79.515625-33.019531zm0 0" fill="#fb8626"/><path d="m512.5 256c0-18.15625-35.625-32.875-79.574219-32.875s-79.574219 14.71875-79.574219 32.875 35.625 32.875 79.574219 32.875 79.574219-14.71875 79.574219-32.875zm0 0" fill="#fb8626"/><path d="m358.011719 403.996094c31.074219 31.078125 66.671875 45.863281 79.511719 33.023437 12.839843-12.839843-1.945313-48.4375-33.019532-79.515625-31.078125-31.074218-66.675781-45.859375-79.515625-33.019531-12.835937 12.839844 1.945313 48.4375 33.023438 79.511719zm0 0" fill="#fb8626"/><path d="m289.375 432.425781c0-43.949219-14.71875-79.574219-32.875-79.574219s-32.875 35.625-32.875 79.574219 14.71875 79.574219 32.875 79.574219 32.875-35.625 32.875-79.574219zm0 0" fill="#fbd43a"/><path d="m256.5 352.851562c18.15625 0 32.875 35.625 32.875 79.574219 0 43.945313-14.71875 79.574219-32.875 79.574219zm0 0" fill="#fb8626"/><path d="m108.5 357.507812c-31.074219 31.074219-45.859375 66.675782-33.019531 79.515626 12.835937 12.835937 48.4375-1.945313 79.511719-33.023438 31.078124-31.074219 45.859374-66.675781 33.023437-79.511719-12.839844-12.839843-48.441406 1.945313-79.515625 33.019531zm0 0" fill="#fbd43a"/><path d="m159.648438 256c0-18.15625-35.625-32.875-79.574219-32.875s-79.574219 14.71875-79.574219 32.875 35.625 32.875 79.574219 32.875 79.574219-14.71875 79.574219-32.875zm0 0" fill="#fbd43a"/><path d="m154.992188 108.003906c-31.074219-31.078125-66.671876-45.863281-79.511719-33.023437-12.839844 12.839843 1.945312 48.4375 33.019531 79.515625 31.078125 31.074218 66.675781 45.859375 79.515625 33.019531s-1.945313-48.4375-33.023437-79.511719zm0 0" fill="#fbd43a"/><path d="m396.285156 256c0 77.199219-62.585937 139.785156-139.785156 139.785156s-139.785156-62.585937-139.785156-139.785156 62.585937-139.785156 139.785156-139.785156 139.785156 62.585937 139.785156 139.785156zm0 0" fill="#f39c11"/><path d="m396.285156 256c0 77.199219-62.585937 139.785156-139.785156 139.785156v-279.570312c77.199219 0 139.785156 62.585937 139.785156 139.785156zm0 0" fill="#b9531c"/><path d="m198.203125 256c0 7.113281-5.765625 12.882812-12.882813 12.882812-7.113281 0-12.882812-5.769531-12.882812-12.882812s5.769531-12.882812 12.882812-12.882812c7.117188 0 12.882813 5.769531 12.882813 12.882812zm0 0" fill="#9c4716"/><path d="m269.382812 256c0 7.113281-5.769531 12.882812-12.882812 12.882812s-12.882812-5.769531-12.882812-12.882812 5.769531-12.882812 12.882812-12.882812 12.882812 5.769531 12.882812 12.882812zm0 0" fill="#9c4716"/><path d="m256.5 268.882812v-25.765624c7.113281 0 12.882812 5.769531 12.882812 12.882812s-5.769531 12.882812-12.882812 12.882812zm0 0" fill="#75362a"/><path d="m340.5625 256c0 7.113281-5.769531 12.882812-12.882812 12.882812-7.117188 0-12.882813-5.769531-12.882813-12.882812s5.765625-12.882812 12.882813-12.882812c7.113281 0 12.882812 5.769531 12.882812 12.882812zm0 0" fill="#75362a"/><path d="m233.792969 197.492188c0 7.113281-5.765625 12.882812-12.882813 12.882812-7.113281 0-12.882812-5.769531-12.882812-12.882812 0-7.117188 5.769531-12.882813 12.882812-12.882813 7.117188 0 12.882813 5.765625 12.882813 12.882813zm0 0" fill="#9c4716"/><path d="m304.972656 197.492188c0 7.113281-5.769531 12.882812-12.882812 12.882812-7.117188 0-12.882813-5.769531-12.882813-12.882812 0-7.117188 5.765625-12.882813 12.882813-12.882813 7.113281 0 12.882812 5.765625 12.882812 12.882813zm0 0" fill="#75362a"/><path d="m233.792969 314.507812c0 7.117188-5.765625 12.882813-12.882813 12.882813-7.113281 0-12.882812-5.765625-12.882812-12.882813 0-7.113281 5.769531-12.882812 12.882812-12.882812 7.117188 0 12.882813 5.769531 12.882813 12.882812zm0 0" fill="#9c4716"/><path d="m304.972656 314.507812c0 7.117188-5.769531 12.882813-12.882812 12.882813-7.117188 0-12.882813-5.765625-12.882813-12.882813 0-7.113281 5.765625-12.882812 12.882813-12.882812 7.113281 0 12.882812 5.769531 12.882812 12.882812zm0 0" fill="#75362a"/></svg>